<svg width="162" height="129" viewBox="0 0 162 129" fill="none" xmlns="http://www.w3.org/2000/svg">
<g opacity="0.25">
<path d="M-103 0.5C-29.8393 0.5 36.3846 4.97615 84.3086 12.21C108.274 15.8275 127.642 20.1318 141.007 24.9014C147.692 27.2872 152.846 29.779 156.319 32.3408C159.806 34.9124 161.5 37.4787 161.5 40C161.5 42.5213 159.806 45.0876 156.319 47.6592C152.846 50.221 147.692 52.7128 141.007 55.0986C127.642 59.8682 108.274 64.1725 84.3086 67.79C36.3846 75.0238 -29.8393 79.5 -103 79.5C-176.161 79.5 -242.385 75.0238 -290.309 67.79C-314.274 64.1725 -333.642 59.8682 -347.007 55.0986C-353.692 52.7128 -358.846 50.221 -362.319 47.6592C-365.806 45.0876 -367.5 42.5213 -367.5 40C-367.5 37.4787 -365.806 34.9124 -362.319 32.3408C-358.846 29.779 -353.692 27.2872 -347.007 24.9014C-333.642 20.1318 -314.274 15.8275 -290.309 12.21C-242.385 4.97615 -176.161 0.5 -103 0.5Z" stroke="white"/>
<path d="M-103 12.5C-29.8393 12.5 36.3846 16.9762 84.3086 24.21C108.274 27.8275 127.642 32.1318 141.007 36.9014C147.692 39.2872 152.846 41.779 156.319 44.3408C159.806 46.9124 161.5 49.4787 161.5 52C161.5 54.5213 159.806 57.0876 156.319 59.6592C152.846 62.221 147.692 64.7128 141.007 67.0986C127.642 71.8682 108.274 76.1725 84.3086 79.79C36.3846 87.0238 -29.8393 91.5 -103 91.5C-176.161 91.5 -242.385 87.0238 -290.309 79.79C-314.274 76.1725 -333.642 71.8682 -347.007 67.0986C-353.692 64.7128 -358.846 62.221 -362.319 59.6592C-365.806 57.0876 -367.5 54.5213 -367.5 52C-367.5 49.4787 -365.806 46.9124 -362.319 44.3408C-358.846 41.779 -353.692 39.2872 -347.007 36.9014C-333.642 32.1318 -314.274 27.8275 -290.309 24.21C-242.385 16.9762 -176.161 12.5 -103 12.5Z" stroke="white"/>
<path d="M-103 25.5C-29.8393 25.5 36.3846 29.9762 84.3086 37.21C108.274 40.8275 127.642 45.1318 141.007 49.9014C147.692 52.2872 152.846 54.779 156.319 57.3408C159.806 59.9124 161.5 62.4787 161.5 65C161.5 67.5213 159.806 70.0876 156.319 72.6592C152.846 75.221 147.692 77.7128 141.007 80.0986C127.642 84.8682 108.274 89.1725 84.3086 92.79C36.3846 100.024 -29.8393 104.5 -103 104.5C-176.161 104.5 -242.385 100.024 -290.309 92.79C-314.274 89.1725 -333.642 84.8682 -347.007 80.0986C-353.692 77.7128 -358.846 75.221 -362.319 72.6592C-365.806 70.0876 -367.5 67.5213 -367.5 65C-367.5 62.4787 -365.806 59.9124 -362.319 57.3408C-358.846 54.779 -353.692 52.2872 -347.007 49.9014C-333.642 45.1318 -314.274 40.8275 -290.309 37.21C-242.385 29.9762 -176.161 25.5 -103 25.5Z" stroke="white"/>
<path d="M-103 37.5C-29.8393 37.5 36.3846 41.9762 84.3086 49.21C108.274 52.8275 127.642 57.1318 141.007 61.9014C147.692 64.2872 152.846 66.779 156.319 69.3408C159.806 71.9124 161.5 74.4787 161.5 77C161.5 79.5213 159.806 82.0876 156.319 84.6592C152.846 87.221 147.692 89.7128 141.007 92.0986C127.642 96.8682 108.274 101.173 84.3086 104.79C36.3846 112.024 -29.8393 116.5 -103 116.5C-176.161 116.5 -242.385 112.024 -290.309 104.79C-314.274 101.173 -333.642 96.8682 -347.007 92.0986C-353.692 89.7128 -358.846 87.221 -362.319 84.6592C-365.806 82.0876 -367.5 79.5213 -367.5 77C-367.5 74.4787 -365.806 71.9124 -362.319 69.3408C-358.846 66.779 -353.692 64.2872 -347.007 61.9014C-333.642 57.1318 -314.274 52.8275 -290.309 49.21C-242.385 41.9762 -176.161 37.5 -103 37.5Z" stroke="white"/>
<path d="M-103 49.5C-29.8393 49.5 36.3846 53.9762 84.3086 61.21C108.274 64.8275 127.642 69.1318 141.007 73.9014C147.692 76.2872 152.846 78.779 156.319 81.3408C159.806 83.9124 161.5 86.4787 161.5 89C161.5 91.5213 159.806 94.0876 156.319 96.6592C152.846 99.221 147.692 101.713 141.007 104.099C127.642 108.868 108.274 113.173 84.3086 116.79C36.3846 124.024 -29.8393 128.5 -103 128.5C-176.161 128.5 -242.385 124.024 -290.309 116.79C-314.274 113.173 -333.642 108.868 -347.007 104.099C-353.692 101.713 -358.846 99.221 -362.319 96.6592C-365.806 94.0876 -367.5 91.5213 -367.5 89C-367.5 86.4787 -365.806 83.9124 -362.319 81.3408C-358.846 78.779 -353.692 76.2872 -347.007 73.9014C-333.642 69.1318 -314.274 64.8275 -290.309 61.21C-242.385 53.9762 -176.161 49.5 -103 49.5Z" stroke="white"/>
</g>
</svg>
